<svg xmlns="http://www.w3.org/2000/svg" width="29" height="29" viewBox="0 0 29 29">
  <defs>
    <style>
      .cls-1 {
        fill: #ccc;
        fill-rule: evenodd;
      }
    </style>
  </defs>
  <path id="Фигура_6" data-name="Фигура 6" class="cls-1" d="M202.25,2068a1.035,1.035,0,0,0-1.036,1.04v2.07h2.072v-2.07A1.035,1.035,0,0,0,202.25,2068Zm14.5,0a1.035,1.035,0,0,0-1.036,1.04v2.07h2.072v-2.07A1.035,1.035,0,0,0,216.75,2068Zm4.143,3.11h-3.107v4.14a1.036,1.036,0,1,1-2.072,0v-4.14H203.286v4.14a1.036,1.036,0,1,1-2.072,0v-4.14h-3.107a3.1,3.1,0,0,0-3.107,3.1v19.68a3.107,3.107,0,0,0,3.107,3.11h22.786a3.107,3.107,0,0,0,3.107-3.11v-19.68A3.1,3.1,0,0,0,220.893,2071.11Zm1.036,22.78a1.041,1.041,0,0,1-1.036,1.04H198.107a1.041,1.041,0,0,1-1.036-1.04v-13.46h24.858v13.46Zm-5.482-11.09a1.044,1.044,0,0,0-1.465,0l-7.553,7.56-3.411-3.41a1.034,1.034,0,0,0-1.465,1.46l4.143,4.14a1.026,1.026,0,0,0,1.465,0l8.285-8.28A1.042,1.042,0,0,0,216.447,2082.8Z" transform="translate(-195 -2068)"/>
</svg>
